<svg width="14" height="14" viewBox="0 0 14 14" fill="none" xmlns="http://www.w3.org/2000/svg">
<path d="M7.00001 2.33331C10.5438 2.33331 13.4167 3.90015 13.4167 5.83331V8.16665C13.4167 10.0998 10.5438 11.6666 7.00001 11.6666C3.51926 11.6666 0.68601 10.1552 0.58626 8.2699L0.583344 8.16665V5.83331C0.583344 3.90015 3.45626 2.33331 7.00001 2.33331ZM7.00001 9.33331C4.83001 9.33331 2.91084 8.7459 1.75001 7.84581V8.16665C1.75001 9.26448 4.01509 10.5 7.00001 10.5C9.92251 10.5 12.1555 9.31581 12.2471 8.23548L12.25 8.16665L12.2506 7.84581C11.0898 8.74531 9.17059 9.33331 7.00001 9.33331ZM7.00001 3.49998C4.01509 3.49998 1.75001 4.73548 1.75001 5.83331C1.75001 6.93115 4.01509 8.16665 7.00001 8.16665C9.98493 8.16665 12.25 6.93115 12.25 5.83331C12.25 4.73548 9.98493 3.49998 7.00001 3.49998Z" fill="#770FDF"/>
</svg>
