<svg width="20" height="20" viewBox="0 0 20 20" fill="none" xmlns="http://www.w3.org/2000/svg">
<path d="M9.99998 3.33331C3.33331 3.33331 0.833313 9.99998 0.833313 9.99998C0.833313 9.99998 3.33331 16.6666 9.99998 16.6666C16.6666 16.6666 19.1666 9.99998 19.1666 9.99998C19.1666 9.99998 16.6666 3.33331 9.99998 3.33331ZM9.99998 4.99998C14.3966 4.99998 16.6205 8.55589 17.3405 9.99672C16.6196 11.4276 14.3791 15 9.99998 15C5.60331 15 3.37948 11.4441 2.65948 10.0032C3.38115 8.5724 5.62081 4.99998 9.99998 4.99998ZM9.99998 6.66665C8.15915 6.66665 6.66665 8.15915 6.66665 9.99998C6.66665 11.8408 8.15915 13.3333 9.99998 13.3333C11.8408 13.3333 13.3333 11.8408 13.3333 9.99998C13.3333 8.15915 11.8408 6.66665 9.99998 6.66665ZM9.99998 8.33331C10.9208 8.33331 11.6666 9.07915 11.6666 9.99998C11.6666 10.9208 10.9208 11.6666 9.99998 11.6666C9.07915 11.6666 8.33331 10.9208 8.33331 9.99998C8.33331 9.07915 9.07915 8.33331 9.99998 8.33331Z" fill="#A0A0A0"/>
</svg>
