<svg width="24" height="24" viewBox="0 0 24 24" fill="none" xmlns="http://www.w3.org/2000/svg">
<path d="M10.293 19.707C10.4885 19.9025 10.744 20 11 20C11.256 20 11.5115 19.9025 11.707 19.707C12.0975 19.3165 12.0975 18.6835 11.707 18.293L6.414 13H20C20.552 13 21 12.552 21 12C21 11.448 20.552 11 20 11H6.414L11.707 5.707C12.0975 5.3165 12.0975 4.6835 11.707 4.293C11.3165 3.9025 10.6835 3.9025 10.293 4.293L3.293 11.293C2.9025 11.6835 2.9025 12.3165 3.293 12.707L10.293 19.707Z" fill="black"/>
</svg>
