<svg width="94" height="87" viewBox="0 0 94 87" fill="none" xmlns="http://www.w3.org/2000/svg">
<g clip-path="url(#clip0_0_823)">
<path d="M60.4504 67.6089C38.2885 70.7497 22.8764 77.0314 12.0574 59.5393C1.23846 42.0472 6.37991 19.3968 23.5709 8.9353C40.7618 -1.52616 56.5029 8.51249 71.8176 22.2598C92.7245 41.0083 80.541 64.8546 60.4504 67.6089Z" fill="#0FDF8F"/>
</g>
<g clip-path="url(#clip1_0_823)">
<path d="M64.2537 46.2467C63.9569 47.4168 63.569 48.5624 63.0937 49.6731C62.2289 51.6907 61.0771 53.5751 59.6734 55.2689C54.1122 61.9832 44.9545 65.3016 35.894 63.0341C23.39 59.9047 15.8099 47.3131 18.966 34.9125C20.3868 29.3301 23.7424 24.7378 28.1421 21.6601C29.9259 20.4117 31.8768 19.4166 33.9382 18.7035C38.1052 17.2627 42.7285 16.9747 47.3244 18.1248C53.289 19.6176 58.1321 23.2604 61.2242 28.0078C63.9046 32.1221 65.2703 37.0655 64.9148 42.1572C64.8169 43.5371 64.5956 44.9056 64.2537 46.2467Z" fill="white"/>
<path d="M59.6734 55.2689C54.1122 61.9832 44.9545 65.3016 35.894 63.0341C23.39 59.9047 15.8099 47.313 18.966 34.9125C20.3868 29.3301 23.7424 24.7378 28.1421 21.6601C28.1007 21.7509 28.0569 21.8405 28.0106 21.929C27.1206 23.627 25.4373 24.8276 24.6721 26.5842C24.1261 27.8354 24.0978 29.2558 23.6116 30.5303C22.9558 32.2448 21.5152 33.5849 20.9564 35.3334C19.9828 38.3726 21.9265 41.5779 21.7201 44.759C21.6462 45.911 21.2966 47.1177 21.732 48.1809C21.9466 48.7009 22.3302 49.1271 22.7058 49.5421C24.58 51.6097 26.4538 53.6787 28.3281 55.7466C29.6658 57.2233 31.2319 58.8102 33.2241 58.8575C34.0771 58.8779 34.942 58.6036 35.7735 58.79C36.8448 59.0296 37.5958 59.9625 38.4977 60.5879C41.0374 62.3517 44.4871 61.5634 47.4736 60.7095C49.8628 60.0269 52.2922 59.3258 54.3924 57.9795C55.3981 57.3354 56.3165 56.5497 57.3648 55.9801C58.0762 55.5926 58.8764 55.309 59.6734 55.2691V55.2689Z" fill="#0FDF8F"/>
<path d="M41.612 64.002C39.6622 64.0021 37.72 63.7628 35.8296 63.2896C29.7126 61.7586 24.563 57.957 21.3293 52.5849C18.0955 47.2128 17.1648 40.9136 18.7087 34.8478C20.6583 27.1882 26.319 21.0597 33.8513 18.4543C38.2111 16.946 42.8928 16.7435 47.39 17.869C53.2043 19.3242 58.1964 22.8739 61.4469 27.8642C64.2038 32.0962 65.5295 37.1785 65.1793 42.1749C65.081 43.5705 64.8577 44.9546 64.5121 46.3109C64.2111 47.494 63.8184 48.6523 63.3377 49.7755C61.1567 54.8582 57.1988 59.0288 52.1933 61.5191C48.9093 63.1523 45.286 64.0024 41.6121 64.0018L41.612 64.002ZM41.5911 17.6792C39.0153 17.6794 36.458 18.1097 34.0263 18.9521C26.6634 21.499 21.1299 27.4896 19.2243 34.9769C17.7152 40.9061 18.6248 47.0634 21.7858 52.3146C24.9467 57.5658 29.9804 61.2819 35.9597 62.7783C47.0639 65.5572 58.3717 60.002 62.8485 49.5694C63.3186 48.4712 63.7024 47.3388 63.9966 46.182C64.3345 44.856 64.5528 43.5029 64.649 42.1385C64.9911 37.2549 63.6954 32.2872 61.0004 28.1504C57.8231 23.2724 52.9434 19.8027 47.26 18.3803C45.4068 17.9155 43.5028 17.68 41.5912 17.6792H41.5911Z" fill="#160229"/>
<path d="M61.2237 28.0073L43.5742 39.3201L41.61 40.5794L40.8422 38.3875L33.939 18.7032C38.1045 17.262 42.728 16.9742 47.3251 18.1247C53.2885 19.6172 58.1315 23.2598 61.2237 28.0073Z" fill="#0FDF8F"/>
<path d="M41.61 40.843C41.5547 40.843 41.5009 40.8259 41.4559 40.7942C41.4109 40.7624 41.377 40.7175 41.3589 40.6658L40.5911 38.474L33.6879 18.7898C33.6648 18.7238 33.669 18.6514 33.6996 18.5885C33.7303 18.5256 33.7849 18.4774 33.8514 18.4543C38.2114 16.9459 42.8931 16.7435 47.3903 17.869C53.2046 19.3241 58.1966 22.8739 61.4471 27.8642C61.4854 27.9229 61.4986 27.9943 61.4838 28.0626C61.469 28.1309 61.4274 28.1907 61.3682 28.2286L41.7543 40.8006C41.7107 40.8286 41.6606 40.8428 41.61 40.8428V40.843ZM34.2778 18.8668L41.7499 40.1756L60.855 27.9298C57.6753 23.1678 52.8575 19.7811 47.2601 18.3803C42.9504 17.3017 38.4674 17.4707 34.2778 18.8668Z" fill="#160229"/>
<path d="M64.9143 42.1567L43.9457 40.737L41.61 40.5793L43.5742 39.32L61.2237 28.0073C63.9041 32.1216 65.2711 37.0653 64.9143 42.1567Z" fill="#160229"/>
<path d="M64.9146 42.4203C64.9084 42.4203 64.9023 42.4201 64.8962 42.4196L41.5919 40.8423C41.5362 40.8384 41.4832 40.8173 41.4403 40.782C41.3974 40.7466 41.3668 40.6987 41.3528 40.6452C41.3389 40.5916 41.3422 40.5351 41.3625 40.4835C41.3827 40.4319 41.4188 40.388 41.4656 40.3579L61.0795 27.7859C61.1387 27.748 61.2107 27.735 61.2796 27.7496C61.3485 27.7643 61.4088 27.8055 61.4471 27.8641C64.2041 32.0961 65.5297 37.1784 65.1796 42.1749C65.1749 42.2414 65.145 42.3037 65.0958 42.3492C65.0467 42.3947 64.9819 42.4201 64.9147 42.4202L64.9146 42.4203ZM42.4257 40.3701L64.6659 41.8757C64.9393 37.1642 63.6938 32.3898 61.1434 28.3727L42.4257 40.3701Z" fill="#160229"/>
<path d="M64.2545 46.2466C63.9572 47.4166 63.569 48.562 63.0933 49.6726L43.7635 41.4907L41.6101 40.5792L43.9459 40.7369L64.9145 42.1566C64.8176 43.5366 64.5967 44.9053 64.2546 46.2465L64.2545 46.2466Z" fill="#E6E6E6"/>
<path d="M63.0933 49.9362C63.0576 49.9362 63.0221 49.9291 62.9889 49.915L41.5056 40.8217C41.4478 40.7973 41.4007 40.7534 41.3724 40.6977C41.3442 40.642 41.3368 40.5783 41.3514 40.5177C41.3661 40.4571 41.4019 40.4037 41.4526 40.3668C41.5032 40.3299 41.5654 40.312 41.6281 40.3163L64.9325 41.8936C65.0029 41.8984 65.0684 41.9308 65.1147 41.9835C65.1611 42.0362 65.1844 42.105 65.1796 42.1748C65.0812 43.5704 64.8579 44.9545 64.5122 46.3109C64.2112 47.494 63.8186 48.6523 63.338 49.7755C63.3176 49.8231 63.2835 49.8637 63.24 49.8923C63.1964 49.9208 63.1454 49.936 63.0933 49.936V49.9362ZM43.1584 40.948L62.9513 49.3258C63.3747 48.3038 63.724 47.2533 63.9966 46.182C64.3126 44.9414 64.5242 43.6769 64.629 42.4016L43.1583 40.948H43.1584Z" fill="#160229"/>
</g>
<g clip-path="url(#clip2_0_823)">
<path d="M52.2457 49.4979H36.4507V46.1384C36.4507 45.7989 36.3148 45.4734 36.073 45.2334C35.8312 44.9934 35.5033 44.8586 35.1613 44.8585H25.8133C25.4714 44.8585 25.1434 44.9934 24.9016 45.2334C24.6598 45.4734 24.5239 45.7989 24.5239 46.1384V49.4979H8.72901C8.17331 49.4979 7.64038 49.717 7.24744 50.1071C6.85451 50.4971 6.63376 51.0261 6.63376 51.5777V81.0139C6.63374 81.287 6.68792 81.5574 6.79321 81.8098C6.8985 82.0621 7.05283 82.2914 7.24739 82.4845C7.44196 82.6776 7.67295 82.8308 7.92716 82.9353C8.18138 83.0398 8.45385 83.0936 8.72901 83.0936H52.2457C52.8014 83.0936 53.3343 82.8745 53.7272 82.4844C54.1202 82.0944 54.3409 81.5654 54.3409 81.0139V51.5777C54.3409 51.0261 54.1202 50.4971 53.7272 50.1071C53.3343 49.717 52.8014 49.4979 52.2457 49.4979ZM26.458 47.4182C26.4581 47.2061 26.543 47.0027 26.6941 46.8527C26.8453 46.7027 27.0502 46.6184 27.2639 46.6183H33.7108C33.9245 46.6184 34.1294 46.7027 34.2805 46.8527C34.4316 47.0027 34.5166 47.2061 34.5167 47.4182V49.4979H26.458V47.4182Z" fill="#0FDF8F"/>
<path d="M54.2603 80.2939C53.6156 81.2538 48.1357 81.7338 34.9196 81.7338C21.7034 81.7338 13.1612 80.9339 13.1612 80.9339C13.1612 80.9862 13.15 81.0481 13.1408 81.0287C12.3238 81.5138 11.3639 81.7061 10.4213 81.5738C8.76816 81.9473 6.64374 80.7363 6.64374 80.7363C6.65373 82.0585 8.24547 83.0936 8.24547 83.0936L15.0953 83.0917C15.0953 83.0917 49.9086 83.1736 52.1049 83.0936C54.3013 83.0136 54.2603 80.2939 54.2603 80.2939Z" fill="#160229"/>
<path d="M52.1651 49.4979C50.5533 49.4179 15.8206 49.4979 15.8206 49.4979C15.4262 49.5585 15.0268 49.5827 14.6279 49.5699C12.3393 49.5859 8.48724 49.5779 8.48724 49.5779C7.99973 49.6489 7.54827 49.874 7.19986 50.2198C6.85145 50.5656 6.62466 51.0138 6.55316 51.4977C6.55316 51.4977 9.32888 50.6421 10.5198 51.3098C10.5198 51.3098 12.1942 50.911 13.0807 51.9242C18.8736 51.1092 24.7171 50.6994 30.5679 50.6978C40.2383 50.6978 50.8757 50.4845 54.3409 51.7909C54.3409 50.8845 53.7768 49.5779 52.1651 49.4979ZM36.3701 46.8583C36.3701 46.8583 36.0478 45.7384 34.1137 45.7384H26.6998C24.7657 45.7384 24.4433 46.8583 24.4433 46.8583C24.4433 46.8583 23.8792 44.8585 26.0148 44.8585H34.9196C34.9196 44.8585 36.5313 44.6185 36.3701 46.8583Z" fill="white"/>
<path d="M52.2457 49.258H36.6925V46.1384C36.692 45.7354 36.5305 45.3492 36.2435 45.0643C35.9564 44.7794 35.5673 44.6191 35.1613 44.6186H25.8133C25.4074 44.619 25.0182 44.7792 24.7311 45.0642C24.4441 45.3491 24.2826 45.7354 24.2822 46.1384V49.258H8.729C8.10941 49.2587 7.51541 49.5033 7.07729 49.9382C6.63918 50.3731 6.39272 50.9627 6.392 51.5777V81.0139C6.39272 81.6289 6.63918 82.2185 7.07729 82.6533C7.51541 83.0882 8.10941 83.3328 8.729 83.3336H52.2457C52.8653 83.3329 53.4593 83.0883 53.8974 82.6534C54.3355 82.2185 54.582 81.6289 54.5827 81.0139V51.5777C54.582 50.9626 54.3355 50.373 53.8974 49.9381C53.4593 49.5033 52.8653 49.2586 52.2457 49.258ZM24.7657 46.1384C24.7661 45.8627 24.8766 45.5985 25.073 45.4035C25.2694 45.2086 25.5356 45.0989 25.8133 45.0985H35.1613C35.4391 45.0989 35.7053 45.2086 35.9017 45.4035C36.098 45.5985 36.2085 45.8627 36.209 46.1384V49.258H34.7584V47.4182C34.758 47.1425 34.6475 46.8783 34.4511 46.6834C34.2547 46.4884 33.9885 46.3788 33.7108 46.3783H27.2639C26.9862 46.3788 26.7199 46.4884 26.5236 46.6834C26.3272 46.8783 26.2167 47.1425 26.2163 47.4182V49.258H24.7657V46.1384ZM34.2749 49.258H26.6998V47.4182C26.6998 47.2697 26.7593 47.1273 26.865 47.0223C26.9708 46.9173 27.1143 46.8583 27.2639 46.8583H33.7108C33.8604 46.8584 34.0038 46.9174 34.1096 47.0224C34.2153 47.1274 34.2748 47.2697 34.2749 47.4182V49.258ZM8.729 82.8536C8.23756 82.8532 7.76637 82.6592 7.41886 82.3143C7.07136 81.9694 6.87594 81.5017 6.87552 81.0139V51.5777C6.87607 51.0899 7.07153 50.6223 7.419 50.2774C7.76648 49.9325 8.2376 49.7385 8.729 49.7379H11.1788C10.8934 49.9537 10.6621 50.232 10.5027 50.5511C10.3434 50.8702 10.2604 51.2215 10.2601 51.5777V81.0139C10.2604 81.37 10.3435 81.7213 10.5028 82.0404C10.6621 82.3594 10.8935 82.6377 11.1788 82.8536H8.729ZM12.5972 82.8536C12.1057 82.8532 11.6345 82.6592 11.287 82.3143C10.9395 81.9694 10.7441 81.5017 10.7437 81.0139V51.5777C10.7442 51.0899 10.9396 50.6222 11.2871 50.2773C11.6346 49.9324 12.1057 49.7384 12.5972 49.7379H13.7576C13.4722 49.9537 13.2408 50.232 13.0815 50.5511C12.9222 50.8702 12.8391 51.2215 12.8389 51.5777V81.0139C12.8392 81.37 12.9222 81.7213 13.0816 82.0404C13.2409 82.3594 13.4722 82.6377 13.7576 82.8536H12.5972ZM54.0991 81.0139C54.0987 81.5017 53.9033 81.9694 53.5558 82.3143C53.2083 82.6592 52.7371 82.8532 52.2457 82.8536H15.1759C14.6845 82.8532 14.2133 82.6592 13.8658 82.3143C13.5183 81.9694 13.3229 81.5017 13.3224 81.0139V51.5777C13.323 51.0899 13.5184 50.6223 13.8659 50.2774C14.2134 49.9325 14.6845 49.7385 15.1759 49.7379H52.2457C52.7371 49.7385 53.2082 49.9325 53.5557 50.2774C53.9031 50.6223 54.0986 51.0899 54.0991 51.5777V81.0139Z" fill="#160229"/>
</g>
<g clip-path="url(#clip3_0_823)">
<path d="M87.1496 77.3949V82.209C87.1496 82.7012 82.1177 83.0999 75.9103 83.0999C75.4096 83.0999 74.9175 83.0975 74.4338 83.0927C68.9254 83.0352 64.6722 82.6616 64.6722 82.2089V77.3947H87.1496V77.3949Z" fill="#0FDF8F"/>
<path d="M75.9103 83.3336C75.4089 83.3336 74.9159 83.3311 74.4314 83.3263C71.7449 83.2983 69.2712 83.1936 67.466 83.0317C66.5682 82.9512 65.8648 82.8593 65.3748 82.7587C64.7953 82.6396 64.4361 82.5061 64.4361 82.2089V77.3948C64.4361 77.3329 64.461 77.2735 64.5052 77.2296C64.5495 77.1858 64.6095 77.1612 64.672 77.1612H87.1495C87.2121 77.1612 87.2721 77.1858 87.3163 77.2296C87.3606 77.2735 87.3855 77.3329 87.3855 77.3948V82.2089C87.3855 82.5211 86.974 82.6609 86.3101 82.7854C85.7358 82.893 84.917 82.9894 83.8764 83.0719C81.7477 83.2406 78.9185 83.3336 75.9102 83.3336H75.9103ZM64.9081 82.1391C65.3616 82.4094 68.5177 82.7973 74.4362 82.859C74.9191 82.8638 75.4104 82.8663 75.9103 82.8663C82.399 82.8663 86.3923 82.4518 86.9137 82.1391V77.6285H64.9082V82.1391H64.9081Z" fill="#160229"/>
<path d="M75.9107 78.2848C82.1176 78.2848 87.1494 77.8864 87.1494 77.3949C87.1494 76.9033 82.1176 76.5049 75.9107 76.5049C69.7037 76.5049 64.6719 76.9033 64.6719 77.3949C64.6719 77.8864 69.7037 78.2848 75.9107 78.2848Z" fill="#160229"/>
<path d="M75.9107 78.5184C72.9026 78.5184 70.0736 78.4255 67.945 78.257C66.9045 78.1747 66.0857 78.0784 65.5114 77.9709C64.8476 77.8466 64.4361 77.7069 64.4361 77.3949C64.4361 77.0828 64.8476 76.9432 65.5114 76.8188C66.0857 76.7113 66.9046 76.6151 67.945 76.5327C70.0737 76.3641 72.9027 76.2712 75.9107 76.2712C78.9186 76.2712 81.7476 76.3641 83.8763 76.5327C84.9167 76.6151 85.7356 76.7113 86.3099 76.8188C86.9737 76.9431 87.3852 77.0828 87.3852 77.3949C87.3852 77.7069 86.9737 77.8465 86.3099 77.9709C85.7356 78.0784 84.9169 78.1747 83.8763 78.257C81.7476 78.4255 78.9186 78.5184 75.9107 78.5184ZM65.0775 77.3949C66.0266 77.6955 69.897 78.0511 75.9107 78.0511C81.9243 78.0511 85.7946 77.6955 86.7437 77.3949C85.7946 77.0943 81.9242 76.7385 75.9107 76.7385C69.8971 76.7385 66.0267 77.0943 65.0775 77.3949Z" fill="#160229"/>
<path d="M69.9128 83.0965C69.8502 83.0965 69.7902 83.0719 69.746 83.0281C69.7017 82.9843 69.6768 82.9249 69.6768 82.8629V78.1532C69.6768 78.0912 69.7017 78.0318 69.746 77.988C69.7902 77.9441 69.8502 77.9195 69.9128 77.9195C69.9754 77.9195 70.0354 77.9441 70.0796 77.988C70.1239 78.0318 70.1487 78.0912 70.1487 78.1532V82.8629C70.1487 82.9249 70.1239 82.9843 70.0796 83.0281C70.0354 83.0719 69.9754 83.0965 69.9128 83.0965ZM75.9107 83.3332C75.8481 83.3332 75.7881 83.3086 75.7438 83.2648C75.6996 83.221 75.6747 83.1616 75.6747 83.0996V78.2847C75.6747 78.2227 75.6996 78.1633 75.7438 78.1195C75.7881 78.0757 75.8481 78.0511 75.9107 78.0511C75.9733 78.0511 76.0333 78.0757 76.0775 78.1195C76.1218 78.1633 76.1466 78.2227 76.1466 78.2847V83.0996C76.1466 83.1616 76.1218 83.221 76.0775 83.2648C76.0333 83.3086 75.9733 83.3332 75.9107 83.3332ZM81.9086 83.0497C81.846 83.0497 81.786 83.0251 81.7417 82.9813C81.6975 82.9374 81.6726 82.878 81.6726 82.816V78.1531C81.6726 78.0911 81.6975 78.0317 81.7417 77.9878C81.786 77.944 81.846 77.9194 81.9086 77.9194C81.9711 77.9194 82.0311 77.944 82.0754 77.9878C82.1196 78.0317 82.1445 78.0911 82.1445 78.1531V82.816C82.1445 82.878 82.1196 82.9374 82.0754 82.9813C82.0311 83.0251 81.9711 83.0497 81.9086 83.0497Z" fill="#160229"/>
<path d="M84.1264 72.5795V77.3949C84.1264 77.8452 79.8914 78.2175 74.3988 78.2763C73.9042 78.2823 73.4 78.2847 72.8872 78.2847C72.7421 78.2847 72.5982 78.2847 72.4555 78.2836C71.5787 78.2811 70.7261 78.2704 69.9123 78.2536C67.877 78.2094 66.0716 78.1207 64.6724 78.001C62.7968 77.8429 61.6491 77.6298 61.6491 77.395V72.5796H84.1266L84.1264 72.5795Z" fill="#0FDF8F"/>
<path d="M72.8871 78.5183C72.7414 78.5183 72.5968 78.5183 72.4535 78.5171C71.6155 78.5146 70.7584 78.5046 69.9073 78.4871C67.8951 78.4433 66.078 78.3556 64.6519 78.2334C63.6922 78.1527 62.9382 78.0591 62.4113 77.9556C61.7949 77.8346 61.4131 77.6986 61.4131 77.3947V72.5793C61.4131 72.5173 61.4379 72.4579 61.4822 72.4141C61.5264 72.3703 61.5864 72.3456 61.649 72.3456H84.1263C84.1889 72.3456 84.2489 72.3703 84.2932 72.4141C84.3374 72.4579 84.3623 72.5173 84.3623 72.5793V77.3947C84.3623 77.6912 84.0042 77.8244 83.4266 77.9429C82.9387 78.043 82.2378 78.1347 81.3435 78.215C79.5453 78.3764 77.0798 78.481 74.4012 78.5096C73.9359 78.5153 73.4404 78.518 72.887 78.518L72.8871 78.5183ZM61.8849 77.3228C62.0105 77.3901 62.5468 77.5873 64.6922 77.768C66.1087 77.8893 67.9155 77.9764 69.9174 78.02C70.7655 78.0374 71.6198 78.0474 72.4561 78.0499C72.5993 78.0511 72.7426 78.0511 72.8871 78.0511C73.4385 78.0511 73.9321 78.0484 74.3959 78.0427C80.2919 77.9797 83.437 77.5935 83.8905 77.3248V72.8132H61.8849V77.3229V77.3228Z" fill="#160229"/>
<path d="M72.8873 73.4701C79.0943 73.4701 84.1261 73.0716 84.1261 72.5801C84.1261 72.0886 79.0943 71.6901 72.8873 71.6901C66.6804 71.6901 61.6486 72.0886 61.6486 72.5801C61.6486 73.0716 66.6804 73.4701 72.8873 73.4701Z" fill="#160229"/>
<path d="M72.8874 73.7036C69.8793 73.7036 67.0503 73.6108 64.9217 73.4423C63.8812 73.3599 63.0624 73.2637 62.4881 73.1562C61.8243 73.0319 61.4128 72.8922 61.4128 72.5801C61.4128 72.2681 61.8243 72.1283 62.4881 72.004C63.0624 71.8964 63.8812 71.8002 64.9217 71.7178C67.0504 71.5494 69.8793 71.4565 72.8875 71.4565C75.8957 71.4565 78.7246 71.5494 80.8533 71.7178C81.8938 71.8002 82.7125 71.8964 83.2868 72.004C83.9507 72.1282 84.3622 72.2681 84.3622 72.5801C84.3622 72.8922 83.9507 73.0318 83.2868 73.1562C82.7125 73.2637 81.8937 73.3599 80.8533 73.4423C78.7246 73.6108 75.8957 73.7036 72.8876 73.7036H72.8874ZM62.0542 72.5801C63.0033 72.8807 66.8738 73.2363 72.8874 73.2363C78.9009 73.2363 82.7714 72.8807 83.7205 72.5801C82.7714 72.2795 78.9011 71.9238 72.8874 71.9238C66.8737 71.9238 63.0033 72.2795 62.0542 72.5801Z" fill="#160229"/>
<path d="M66.8895 78.2818C66.8269 78.2818 66.7669 78.2572 66.7226 78.2134C66.6784 78.1695 66.6535 78.1101 66.6535 78.0481V73.3384C66.6535 73.2764 66.6784 73.217 66.7226 73.1732C66.7669 73.1294 66.8269 73.1048 66.8895 73.1048C66.9521 73.1048 67.0121 73.1294 67.0563 73.1732C67.1006 73.217 67.1254 73.2764 67.1254 73.3384V78.0481C67.1254 78.1101 67.1006 78.1695 67.0563 78.2134C67.0121 78.2572 66.9521 78.2818 66.8895 78.2818ZM72.8874 78.5184C72.8248 78.5184 72.7648 78.4937 72.7205 78.4499C72.6763 78.4061 72.6514 78.3467 72.6514 78.2847V73.47C72.6514 73.408 72.6763 73.3486 72.7205 73.3047C72.7648 73.2609 72.8248 73.2363 72.8874 73.2363C72.9499 73.2363 73.01 73.2609 73.0542 73.3047C73.0984 73.3486 73.1233 73.408 73.1233 73.47V78.2847C73.1233 78.3467 73.0984 78.4061 73.0542 78.4499C73.01 78.4937 72.9499 78.5184 72.8874 78.5184ZM78.8854 78.2348C78.8228 78.2348 78.7628 78.2102 78.7185 78.1664C78.6743 78.1226 78.6494 78.0631 78.6494 78.0012V73.3383C78.6494 73.2763 78.6743 73.2169 78.7185 73.1731C78.7628 73.1293 78.8228 73.1046 78.8854 73.1046C78.9479 73.1046 79.008 73.1293 79.0522 73.1731C79.0964 73.2169 79.1213 73.2763 79.1213 73.3383V78.0012C79.1213 78.0631 79.0964 78.1226 79.0522 78.1664C79.008 78.2102 78.9479 78.2348 78.8854 78.2348Z" fill="#160229"/>
<path d="M65.3961 67.7652V72.58C65.3961 73.0715 70.4277 73.47 76.6347 73.47C82.8416 73.47 87.8734 73.0715 87.8734 72.58V67.7652H65.3961Z" fill="#0FDF8F"/>
<path d="M76.6347 73.7036C73.6267 73.7036 70.7977 73.6107 68.669 73.4422C67.6286 73.3598 66.8097 73.2635 66.2355 73.1561C65.5716 73.0318 65.1601 72.892 65.1601 72.58V67.7652C65.1601 67.7033 65.185 67.6438 65.2292 67.6C65.2735 67.5562 65.3335 67.5316 65.3961 67.5316H87.8734C87.936 67.5316 87.996 67.5562 88.0403 67.6C88.0845 67.6438 88.1094 67.7033 88.1094 67.7652V72.58C88.1094 72.892 87.6979 73.0316 87.034 73.1561C86.4597 73.2635 85.6409 73.3598 84.6005 73.4422C82.4717 73.6107 79.6427 73.7036 76.6347 73.7036ZM65.632 72.5101C66.1543 72.8223 70.1474 73.2363 76.6347 73.2363C83.1219 73.2363 87.1151 72.8223 87.6375 72.5101V67.9989H65.632V72.5101Z" fill="#160229"/>
<path d="M76.6348 68.6553C82.8418 68.6553 87.8735 68.2569 87.8735 67.7653C87.8735 67.2738 82.8418 66.8754 76.6348 66.8754C70.4278 66.8754 65.3961 67.2738 65.3961 67.7653C65.3961 68.2569 70.4278 68.6553 76.6348 68.6553Z" fill="#160229"/>
<path d="M76.6347 68.8889C73.6267 68.8889 70.7977 68.796 68.669 68.6274C67.6286 68.5451 66.8097 68.4488 66.2355 68.3413C65.5716 68.217 65.1601 68.0773 65.1601 67.7652C65.1601 67.4532 65.5716 67.3136 66.2355 67.1892C66.8097 67.0817 67.6285 66.9854 68.669 66.9031C70.7977 66.7346 73.6267 66.6417 76.6347 66.6417C79.6427 66.6417 82.4718 66.7346 84.6004 66.9031C85.6409 66.9854 86.4596 67.0817 87.0339 67.1892C87.6978 67.3135 88.1092 67.4532 88.1092 67.7652C88.1092 68.0773 87.6978 68.2169 87.0339 68.3413C86.4596 68.4488 85.6408 68.5451 84.6004 68.6274C82.4715 68.796 79.6425 68.8889 76.6346 68.8889H76.6347ZM65.8017 67.7652C66.7508 68.0658 70.6211 68.4216 76.6347 68.4216C82.6483 68.4216 86.5186 68.0658 87.4678 67.7652C86.5187 67.4646 82.6484 67.109 76.6347 67.109C70.621 67.109 66.7508 67.4646 65.8017 67.7652Z" fill="#160229"/>
<path d="M70.6369 73.467C70.5743 73.467 70.5143 73.4424 70.4701 73.3986C70.4258 73.3548 70.401 73.2954 70.401 73.2334V68.5237C70.401 68.4617 70.4258 68.4023 70.4701 68.3584C70.5143 68.3146 70.5743 68.29 70.6369 68.29C70.6995 68.29 70.7595 68.3146 70.8038 68.3584C70.848 68.4023 70.8729 68.4617 70.8729 68.5237V73.2334C70.8729 73.2954 70.848 73.3548 70.8038 73.3986C70.7595 73.4424 70.6995 73.467 70.6369 73.467ZM76.6347 73.7036C76.5721 73.7036 76.5121 73.679 76.4678 73.6352C76.4236 73.5914 76.3987 73.5319 76.3987 73.47V68.6552C76.3987 68.5932 76.4236 68.5338 76.4678 68.49C76.5121 68.4462 76.5721 68.4216 76.6347 68.4216C76.6973 68.4216 76.7573 68.4462 76.8015 68.49C76.8458 68.5338 76.8706 68.5932 76.8706 68.6552V73.47C76.8706 73.5319 76.8458 73.5914 76.8015 73.6352C76.7573 73.679 76.6973 73.7036 76.6347 73.7036ZM82.6327 73.4202C82.5701 73.4202 82.5101 73.3956 82.4658 73.3518C82.4216 73.3079 82.3967 73.2485 82.3967 73.1865V68.5237C82.3967 68.4617 82.4216 68.4023 82.4658 68.3584C82.5101 68.3146 82.5701 68.29 82.6327 68.29C82.6953 68.29 82.7553 68.3146 82.7995 68.3584C82.8438 68.4023 82.8686 68.4617 82.8686 68.5237V73.1865C82.8686 73.2485 82.8438 73.3079 82.7995 73.3518C82.7553 73.3956 82.6953 73.4202 82.6327 73.4202Z" fill="#160229"/>
<path d="M58.0996 62.9505V67.7652C58.0996 68.2567 63.1313 68.6552 69.3383 68.6552C75.5452 68.6552 80.577 68.2567 80.577 67.7652V62.9505H58.0996Z" fill="#0FDF8F"/>
<path d="M69.3384 68.8889C66.3304 68.8889 63.5014 68.796 61.3726 68.6274C60.3322 68.5451 59.5133 68.4488 58.939 68.3413C58.2752 68.217 57.8637 68.0773 57.8637 67.7653V62.9505C57.8637 62.8885 57.8886 62.8291 57.9328 62.7853C57.9771 62.7415 58.0371 62.7169 58.0997 62.7169H80.577C80.6396 62.7169 80.6996 62.7415 80.7438 62.7853C80.7881 62.8291 80.8129 62.8885 80.8129 62.9505V67.7653C80.8129 68.0773 80.4015 68.2169 79.7376 68.3413C79.1633 68.4488 78.3445 68.5451 77.3041 68.6274C75.1752 68.796 72.3462 68.8889 69.3383 68.8889H69.3384ZM58.3356 67.6954C58.8579 68.0076 62.851 68.4216 69.3384 68.4216C75.8257 68.4216 79.8188 68.0076 80.3412 67.6954V63.1842H58.3356V67.6954Z" fill="#160229"/>
<path d="M69.3384 63.8405C75.5453 63.8405 80.5771 63.442 80.5771 62.9505C80.5771 62.459 75.5453 62.0605 69.3384 62.0605C63.1314 62.0605 58.0996 62.459 58.0996 62.9505C58.0996 63.442 63.1314 63.8405 69.3384 63.8405Z" fill="#160229"/>
<path d="M69.3384 64.0742C66.3304 64.0742 63.5014 63.9814 61.3726 63.8128C60.3322 63.7304 59.5133 63.6341 58.939 63.5267C58.2752 63.4024 57.8637 63.2626 57.8637 62.9506C57.8637 62.6386 58.2752 62.4989 58.939 62.3745C59.5133 62.267 60.3322 62.1708 61.3726 62.0884C63.5014 61.9198 66.3304 61.827 69.3384 61.827C72.3463 61.827 75.1754 61.9198 77.3042 62.0884C78.3446 62.1708 79.1634 62.267 79.7377 62.3745C80.4016 62.4988 80.8131 62.6386 80.8131 62.9506C80.8131 63.2626 80.4016 63.4022 79.7377 63.5267C79.1634 63.6341 78.3446 63.7304 77.3042 63.8128C75.1754 63.9814 72.3463 64.0742 69.3384 64.0742ZM58.5052 62.9506C59.4543 63.2512 63.3248 63.6069 69.3384 63.6069C75.352 63.6069 79.2223 63.2512 80.1715 62.9506C79.2224 62.65 75.352 62.2943 69.3384 62.2943C63.3248 62.2943 59.4545 62.65 58.5052 62.9506Z" fill="#160229"/>
<path d="M63.3404 68.6523C63.2778 68.6523 63.2178 68.6277 63.1735 68.5839C63.1293 68.54 63.1044 68.4806 63.1044 68.4186V63.7088C63.1044 63.6468 63.1293 63.5874 63.1735 63.5436C63.2178 63.4998 63.2778 63.4752 63.3404 63.4752C63.403 63.4752 63.463 63.4998 63.5072 63.5436C63.5515 63.5874 63.5763 63.6468 63.5763 63.7088V68.4186C63.5763 68.4806 63.5515 68.54 63.5072 68.5839C63.463 68.6277 63.403 68.6523 63.3404 68.6523ZM69.3384 68.8889C69.2758 68.8889 69.2158 68.8643 69.1715 68.8204C69.1273 68.7766 69.1024 68.7172 69.1024 68.6552V63.8405C69.1024 63.7785 69.1273 63.7191 69.1715 63.6753C69.2158 63.6314 69.2758 63.6068 69.3384 63.6068C69.401 63.6068 69.461 63.6314 69.5052 63.6753C69.5495 63.7191 69.5743 63.7785 69.5743 63.8405V68.6552C69.5743 68.7172 69.5495 68.7766 69.5052 68.8204C69.461 68.8643 69.401 68.8889 69.3384 68.8889ZM75.3363 68.6055C75.2737 68.6055 75.2137 68.5808 75.1694 68.537C75.1252 68.4932 75.1003 68.4338 75.1003 68.3718V63.7088C75.1003 63.6468 75.1252 63.5874 75.1694 63.5436C75.2137 63.4998 75.2737 63.4752 75.3363 63.4752C75.3988 63.4752 75.4589 63.4998 75.5031 63.5436C75.5473 63.5874 75.5722 63.6468 75.5722 63.7088V68.3718C75.5722 68.4338 75.5473 68.4932 75.5031 68.537C75.4589 68.5808 75.3988 68.6055 75.3363 68.6055Z" fill="#160229"/>
<path d="M61.6487 58.1357V62.9505C61.6487 63.442 66.6804 63.8405 72.8874 63.8405C79.0943 63.8405 84.1261 63.442 84.1261 62.9505V58.1357H61.6487Z" fill="#0FDF8F"/>
<path d="M72.8874 64.0742C69.8794 64.0742 67.0504 63.9814 64.9216 63.8128C63.8812 63.7304 63.0623 63.6342 62.488 63.5267C61.8242 63.4024 61.4127 63.2627 61.4127 62.9506V58.1358C61.4127 58.0738 61.4375 58.0144 61.4818 57.9705C61.526 57.9267 61.5861 57.9021 61.6486 57.9021H84.126C84.1886 57.9021 84.2486 57.9267 84.2928 57.9705C84.3371 58.0144 84.3619 58.0738 84.3619 58.1358V62.9506C84.3619 63.2627 83.9504 63.4023 83.2866 63.5267C82.7123 63.6342 81.8935 63.7304 80.853 63.8128C78.7242 63.9814 75.8952 64.0742 72.8872 64.0742H72.8874ZM61.8846 62.8808C62.4069 63.1929 66.4 63.6069 72.8874 63.6069C79.3747 63.6069 83.3678 63.1929 83.8901 62.8808V58.3694H61.8847V62.8808H61.8846Z" fill="#160229"/>
<path d="M72.8873 59.0257C79.0943 59.0257 84.1261 58.6273 84.1261 58.1357C84.1261 57.6442 79.0943 57.2458 72.8873 57.2458C66.6804 57.2458 61.6486 57.6442 61.6486 58.1357C61.6486 58.6273 66.6804 59.0257 72.8873 59.0257Z" fill="#160229"/>
<path d="M72.8874 59.2594C69.8793 59.2594 67.0503 59.1665 64.9217 58.998C63.8812 58.9157 63.0624 58.8194 62.4881 58.7119C61.8243 58.5876 61.4128 58.4479 61.4128 58.1359C61.4128 57.8238 61.8243 57.6842 62.4881 57.5598C63.0624 57.4523 63.8813 57.3561 64.9217 57.2737C67.0505 57.1051 69.8795 57.0122 72.8875 57.0122C75.8955 57.0122 78.7245 57.1051 80.8533 57.2737C81.8937 57.3561 82.7125 57.4523 83.2868 57.5598C83.9507 57.6841 84.3622 57.8238 84.3622 58.1359C84.3622 58.4479 83.9507 58.5875 83.2868 58.7119C82.7125 58.8194 81.8937 58.9157 80.8533 58.998C78.7246 59.1665 75.8957 59.2594 72.8876 59.2594H72.8874ZM62.0542 58.1359C63.0033 58.4365 66.8737 58.7921 72.8874 58.7921C78.9011 58.7921 82.7713 58.4365 83.7205 58.1359C82.7714 57.8353 78.9009 57.4795 72.8874 57.4795C66.8738 57.4795 63.0034 57.8353 62.0542 58.1359Z" fill="#160229"/>
<path d="M66.8895 63.8374C66.8269 63.8374 66.7669 63.8128 66.7226 63.769C66.6784 63.7252 66.6535 63.6657 66.6535 63.6038V58.8941C66.6535 58.8321 66.6784 58.7727 66.7226 58.7288C66.7669 58.685 66.8269 58.6604 66.8895 58.6604C66.9521 58.6604 67.0121 58.685 67.0563 58.7288C67.1006 58.7727 67.1254 58.8321 67.1254 58.8941V63.6038C67.1254 63.6657 67.1006 63.7252 67.0563 63.769C67.0121 63.8128 66.9521 63.8374 66.8895 63.8374ZM72.8874 64.0742C72.8248 64.0742 72.7648 64.0496 72.7205 64.0058C72.6763 63.962 72.6514 63.9025 72.6514 63.8406V59.0257C72.6514 58.9637 72.6763 58.9043 72.7205 58.8605C72.7648 58.8167 72.8248 58.7921 72.8874 58.7921C72.9499 58.7921 73.01 58.8167 73.0542 58.8605C73.0984 58.9043 73.1233 58.9637 73.1233 59.0257V63.8406C73.1233 63.9025 73.0984 63.962 73.0542 64.0058C73.01 64.0496 72.9499 64.0742 72.8874 64.0742ZM78.8854 63.7907C78.8228 63.7907 78.7628 63.7661 78.7185 63.7223C78.6743 63.6784 78.6494 63.619 78.6494 63.557V58.8941C78.6494 58.8321 78.6743 58.7727 78.7185 58.7288C78.7628 58.685 78.8228 58.6604 78.8854 58.6604C78.9479 58.6604 79.008 58.685 79.0522 58.7288C79.0964 58.7727 79.1213 58.8321 79.1213 58.8941V63.557C79.1213 63.619 79.0964 63.6784 79.0522 63.7223C79.008 63.7661 78.9479 63.7907 78.8854 63.7907Z" fill="#160229"/>
<path d="M59.9557 53.321V58.1357C59.9557 58.6272 64.9874 59.0257 71.1943 59.0257C77.4013 59.0257 82.4331 58.6272 82.4331 58.1357V53.321H59.9557Z" fill="#0FDF8F"/>
<path d="M71.1943 59.2594C68.1863 59.2594 65.3573 59.1665 63.2286 58.9979C62.1882 58.9156 61.3694 58.8193 60.7951 58.7118C60.1312 58.5875 59.7198 58.4478 59.7198 58.1357V53.321C59.7198 53.259 59.7446 53.1996 59.7889 53.1558C59.8331 53.112 59.8931 53.0873 59.9557 53.0873H82.433C82.4956 53.0873 82.5556 53.112 82.5999 53.1558C82.6441 53.1996 82.669 53.259 82.669 53.321V58.1357C82.669 58.4478 82.2575 58.5874 81.5937 58.7118C81.0194 58.8193 80.2005 58.9156 79.1601 58.9979C77.0313 59.1665 74.2023 59.2594 71.1943 59.2594ZM60.1917 58.0659C60.7139 58.378 64.7071 58.7921 71.1943 58.7921C77.6816 58.7921 81.6747 58.378 82.1971 58.0659V53.5546H60.1917V58.0659Z" fill="#160229"/>
<path d="M71.1943 54.211C77.4013 54.211 82.4331 53.8125 82.4331 53.321C82.4331 52.8295 77.4013 52.431 71.1943 52.431C64.9873 52.431 59.9556 52.8295 59.9556 53.321C59.9556 53.8125 64.9873 54.211 71.1943 54.211Z" fill="#160229"/>
<path d="M71.1943 54.4446C68.1862 54.4446 65.3572 54.3517 63.2286 54.1833C62.1881 54.1009 61.3694 54.0047 60.7951 53.8971C60.1312 53.7729 59.7198 53.633 59.7198 53.321C59.7198 53.009 60.1312 52.8693 60.7951 52.7449C61.3694 52.6374 62.1881 52.5412 63.2286 52.4588C65.3573 52.2904 68.1863 52.1975 71.1943 52.1975C74.2023 52.1975 77.0314 52.2904 79.16 52.4588C80.2005 52.5412 81.0193 52.6374 81.5935 52.7449C82.2574 52.8692 82.6689 53.009 82.6689 53.321C82.6689 53.633 82.2574 53.7728 81.5935 53.8971C81.0193 54.0047 80.2005 54.1009 79.16 54.1833C77.0313 54.3517 74.2024 54.4446 71.1942 54.4446H71.1943ZM60.3612 53.321C61.3103 53.6216 65.1806 53.9773 71.1943 53.9773C77.208 53.9773 81.0784 53.6216 82.0275 53.321C81.0784 53.0204 77.2079 52.6648 71.1943 52.6648C65.1807 52.6648 61.3104 53.0204 60.3612 53.321Z" fill="#160229"/>
<path d="M65.2548 59.0785C65.1928 59.0785 65.1332 59.0542 65.0891 59.011C65.0449 58.9678 65.0197 58.9092 65.0189 58.8477L64.9605 54.0821C64.9601 54.0514 64.9659 54.021 64.9774 53.9925C64.9889 53.964 65.006 53.938 65.0276 53.9161C65.0492 53.8941 65.075 53.8766 65.1035 53.8645C65.132 53.8524 65.1626 53.846 65.1936 53.8457C65.3224 53.8419 65.4309 53.9475 65.4324 54.0765L65.4908 58.8421C65.4912 58.8728 65.4854 58.9032 65.4739 58.9317C65.4624 58.9602 65.4453 58.9862 65.4237 59.0081C65.402 59.0301 65.3762 59.0476 65.3478 59.0597C65.3193 59.0718 65.2887 59.0782 65.2577 59.0785H65.2547H65.2548ZM71.1943 59.2594C71.1317 59.2594 71.0717 59.2348 71.0275 59.191C70.9832 59.1471 70.9584 59.0877 70.9584 59.0257V54.211C70.9584 54.149 70.9832 54.0896 71.0275 54.0458C71.0717 54.002 71.1317 53.9773 71.1943 53.9773C71.2569 53.9773 71.3169 54.002 71.3612 54.0458C71.4054 54.0896 71.4303 54.149 71.4303 54.211V59.0257C71.4303 59.0877 71.4054 59.1471 71.3612 59.191C71.3169 59.2348 71.2569 59.2594 71.1943 59.2594ZM77.1923 59.0343C77.1298 59.0343 77.0697 59.0097 77.0255 58.9658C76.9812 58.922 76.9564 58.8626 76.9564 58.8006V54.0793C76.9564 54.0174 76.9812 53.9579 77.0255 53.9141C77.0697 53.8703 77.1298 53.8457 77.1923 53.8457C77.2549 53.8457 77.3149 53.8703 77.3592 53.9141C77.4034 53.9579 77.4283 54.0174 77.4283 54.0793V58.8006C77.4283 58.8626 77.4034 58.922 77.3592 58.9658C77.3149 59.0097 77.2549 59.0343 77.1923 59.0343Z" fill="#160229"/>
<path d="M61.6487 48.5063V53.321C61.6487 53.8125 66.6804 54.211 72.8874 54.211C79.0943 54.211 84.1261 53.8125 84.1261 53.321V48.5063H61.6487Z" fill="#0FDF8F"/>
<path d="M72.8874 54.4446C69.8794 54.4446 67.0504 54.3518 64.9216 54.1832C63.8812 54.1008 63.0623 54.0046 62.488 53.8971C61.8242 53.7728 61.4127 53.6331 61.4127 53.321V48.5063C61.4127 48.4443 61.4375 48.3849 61.4818 48.341C61.526 48.2972 61.5861 48.2726 61.6486 48.2726H84.126C84.1886 48.2726 84.2486 48.2972 84.2928 48.341C84.3371 48.3849 84.3619 48.4443 84.3619 48.5063V53.321C84.3619 53.6331 83.9504 53.7727 83.2866 53.8971C82.7123 54.0046 81.8935 54.1008 80.853 54.1832C78.7242 54.3518 75.8952 54.4446 72.8872 54.4446H72.8874ZM61.8846 53.2512C62.4069 53.5633 66.4 53.9773 72.8874 53.9773C79.3747 53.9773 83.3678 53.5633 83.8901 53.2512V48.7399H61.8847V53.2512H61.8846Z" fill="#160229"/>
<path d="M72.8873 49.3962C79.0943 49.3962 84.1261 48.9978 84.1261 48.5063C84.1261 48.0147 79.0943 47.6163 72.8873 47.6163C66.6804 47.6163 61.6486 48.0147 61.6486 48.5063C61.6486 48.9978 66.6804 49.3962 72.8873 49.3962Z" fill="#160229"/>
<path d="M72.8874 49.6299C69.8794 49.6299 67.0504 49.537 64.9216 49.3684C63.8812 49.286 63.0623 49.1898 62.488 49.0823C61.8242 48.958 61.4127 48.8183 61.4127 48.5062C61.4127 48.1942 61.8242 48.0546 62.488 47.9302C63.0623 47.8227 63.8812 47.7264 64.9216 47.6441C67.0503 47.4756 69.8792 47.3827 72.8872 47.3827C75.8953 47.3827 78.7243 47.4756 80.8529 47.6441C81.8934 47.7264 82.7122 47.8227 83.2865 47.9302C83.9503 48.0545 84.3618 48.1942 84.3618 48.5062C84.3618 48.8183 83.9503 48.9579 83.2865 49.0823C82.7122 49.1898 81.8933 49.286 80.8529 49.3684C78.7241 49.537 75.8951 49.6299 72.8871 49.6299H72.8874ZM62.0542 48.5062C63.0033 48.8068 66.8738 49.1626 72.8874 49.1626C78.9009 49.1626 82.7713 48.8068 83.7205 48.5062C82.7714 48.2056 78.9011 47.85 72.8874 47.85C66.8737 47.85 63.0034 48.2056 62.0542 48.5062Z" fill="#160229"/>
<path d="M66.8895 54.2702C66.8269 54.2702 66.7669 54.2456 66.7226 54.2018C66.6784 54.158 66.6535 54.0985 66.6535 54.0366V49.2646C66.6535 49.2026 66.6784 49.1432 66.7226 49.0993C66.7669 49.0555 66.8269 49.0309 66.8895 49.0309C66.9521 49.0309 67.0121 49.0555 67.0563 49.0993C67.1006 49.1432 67.1254 49.2026 67.1254 49.2646V54.0366C67.1254 54.0985 67.1006 54.158 67.0563 54.2018C67.0121 54.2456 66.9521 54.2702 66.8895 54.2702ZM72.8874 54.4446C72.8248 54.4446 72.7648 54.42 72.7205 54.3762C72.6763 54.3324 72.6514 54.2729 72.6514 54.211V49.3962C72.6514 49.3343 72.6763 49.2748 72.7205 49.231C72.7648 49.1872 72.8248 49.1626 72.8874 49.1626C72.9499 49.1626 73.01 49.1872 73.0542 49.231C73.0984 49.2748 73.1233 49.3343 73.1233 49.3962V54.211C73.1233 54.2729 73.0984 54.3324 73.0542 54.3762C73.01 54.42 72.9499 54.4446 72.8874 54.4446ZM78.8854 54.1764C78.8228 54.1764 78.7628 54.1518 78.7185 54.108C78.6743 54.0641 78.6494 54.0047 78.6494 53.9427V49.2646C78.6494 49.2026 78.6743 49.1432 78.7185 49.0993C78.7628 49.0555 78.8228 49.0309 78.8854 49.0309C78.9479 49.0309 79.008 49.0555 79.0522 49.0993C79.0964 49.1432 79.1213 49.2026 79.1213 49.2646V53.9427C79.1213 54.0047 79.0964 54.0641 79.0522 54.108C79.008 54.1518 78.9479 54.1764 78.8854 54.1764Z" fill="#160229"/>
<path d="M62.6161 43.6914V48.5061C62.6161 48.9976 67.6478 49.3961 73.8547 49.3961C80.0617 49.3961 85.0935 48.9976 85.0935 48.5061V43.6914H62.6161Z" fill="#0FDF8F"/>
<path d="M73.8549 49.6299C70.8469 49.6299 68.0179 49.537 65.8891 49.3684C64.8487 49.2861 64.0298 49.1898 63.4555 49.0823C62.7917 48.958 62.3802 48.8183 62.3802 48.5063V43.6915C62.3802 43.6295 62.405 43.5701 62.4493 43.5263C62.4935 43.4825 62.5536 43.4579 62.6161 43.4579H85.0935C85.1561 43.4579 85.2161 43.4825 85.2603 43.5263C85.3046 43.5701 85.3294 43.6295 85.3294 43.6915V48.5063C85.3294 48.8183 84.9179 48.9579 84.2541 49.0823C83.6798 49.1898 82.8609 49.2861 81.8205 49.3684C79.6917 49.537 76.8627 49.6299 73.8547 49.6299H73.8549ZM62.8521 48.4364C63.3743 48.7486 67.3675 49.1626 73.8549 49.1626C80.3422 49.1626 84.3353 48.7486 84.8576 48.4364V43.9252H62.8521V48.4364Z" fill="#160229"/>
<path d="M73.8549 44.5815C80.0619 44.5815 85.0936 44.183 85.0936 43.6915C85.0936 43.2 80.0619 42.8015 73.8549 42.8015C67.6479 42.8015 62.6161 43.2 62.6161 43.6915C62.6161 44.183 67.6479 44.5815 73.8549 44.5815Z" fill="#160229"/>
<path d="M73.8549 44.8151C70.8469 44.8151 68.0179 44.7223 65.8891 44.5537C64.8487 44.4713 64.0298 44.3751 63.4555 44.2676C62.7917 44.1433 62.3802 44.0035 62.3802 43.6915C62.3802 43.3795 62.7917 43.2399 63.4555 43.1154C64.0298 43.008 64.8487 42.9117 65.8891 42.8293C68.0179 42.6607 70.8469 42.5679 73.8549 42.5679C76.8628 42.5679 79.6918 42.6607 81.8207 42.8293C82.8611 42.9117 83.6799 43.008 84.2542 43.1154C84.918 43.2397 85.3295 43.3795 85.3295 43.6915C85.3295 44.0035 84.918 44.1432 84.2542 44.2676C83.6799 44.3751 82.8611 44.4713 81.8207 44.5537C79.6918 44.7223 76.8628 44.8151 73.8549 44.8151ZM63.0217 43.6915C63.9708 43.9921 67.8413 44.3478 73.8549 44.3478C79.8684 44.3478 83.7388 43.9921 84.688 43.6915C83.7389 43.3909 79.8684 43.0352 73.8549 43.0352C67.8413 43.0352 63.9709 43.3909 63.0217 43.6915Z" fill="#160229"/>
<path d="M73.8549 49.6299C73.7923 49.6299 73.7323 49.6053 73.688 49.5615C73.6438 49.5176 73.6189 49.4582 73.6189 49.3962V44.5815C73.6189 44.5195 73.6438 44.4601 73.688 44.4163C73.7323 44.3725 73.7923 44.3478 73.8549 44.3478C73.9175 44.3478 73.9775 44.3725 74.0217 44.4163C74.066 44.4601 74.0908 44.5195 74.0908 44.5815V49.3962C74.0908 49.4582 74.066 49.5176 74.0217 49.5615C73.9775 49.6053 73.9175 49.6299 73.8549 49.6299ZM67.7978 49.4982C67.7352 49.4982 67.6752 49.4736 67.6309 49.4298C67.5867 49.386 67.5618 49.3265 67.5618 49.2646V44.5815C67.5618 44.5195 67.5867 44.4601 67.6309 44.4163C67.6752 44.3725 67.7352 44.3478 67.7978 44.3478C67.8604 44.3478 67.9204 44.3725 67.9646 44.4163C68.0089 44.4601 68.0337 44.5195 68.0337 44.5815V49.2646C68.0337 49.3265 68.0089 49.386 67.9646 49.4298C67.9204 49.4736 67.8604 49.4982 67.7978 49.4982ZM79.7937 49.4982C79.7311 49.4982 79.6711 49.4736 79.6268 49.4298C79.5826 49.386 79.5577 49.3265 79.5577 49.2646V44.5815C79.5577 44.5195 79.5826 44.4601 79.6268 44.4163C79.6711 44.3725 79.7311 44.3478 79.7937 44.3478C79.8562 44.3478 79.9163 44.3725 79.9605 44.4163C80.0048 44.4601 80.0296 44.5195 80.0296 44.5815V49.2646C80.0296 49.3265 80.0048 49.386 79.9605 49.4298C79.9163 49.4736 79.8562 49.4982 79.7937 49.4982ZM74.4338 83.0927C68.9254 83.0352 64.6722 82.6616 64.6722 82.2089V78.0007C62.7965 77.8427 61.6489 77.6296 61.6489 77.3947V74.4021L63.1013 73.019L63.562 72.5795L64.1485 72.0203L65.3966 70.8311L67.6894 68.6455L68.0146 68.3354L68.2625 68.0995L68.3726 68.3677L68.4898 68.6528L69.7547 71.7245L70.1066 72.5795L70.4125 73.3221L70.4646 73.4502L71.7488 76.5687L72.0886 77.395L72.4368 78.2417L72.455 78.2837L74.4334 83.0929L74.4338 83.0927Z" fill="#160229"/>
<path d="M74.4338 83.3263H74.4313C71.7449 83.2983 69.2713 83.1936 67.466 83.0317C66.5682 82.9512 65.8648 82.8593 65.3748 82.7587C64.7953 82.6396 64.4361 82.5061 64.4361 82.2089V78.2149C63.5783 78.1383 62.8979 78.0513 62.4112 77.9556C61.7948 77.8346 61.4129 77.6986 61.4129 77.3947V74.4021C61.4129 74.3707 61.4194 74.3396 61.4318 74.3106C61.4443 74.2817 61.4625 74.2556 61.4854 74.2338L68.0992 67.9309C68.127 67.9045 68.1609 67.8852 68.198 67.8747C68.235 67.8643 68.2741 67.863 68.3118 67.8709C68.3495 67.8788 68.3846 67.8958 68.4142 67.9203C68.4437 67.9448 68.4668 67.9761 68.4813 68.0114L74.6523 83.0045C74.6668 83.04 74.6723 83.0785 74.6683 83.1165C74.6644 83.1546 74.651 83.1912 74.6294 83.2229C74.6079 83.2547 74.5787 83.2808 74.5446 83.2988C74.5105 83.3168 74.4724 83.3263 74.4338 83.3263ZM64.9081 82.1392C65.3525 82.4039 68.3913 82.7817 74.0811 82.855L68.1752 68.5067L61.8849 74.5017V77.3227C62.0105 77.39 62.5468 77.5872 64.6922 77.7679C64.7511 77.7729 64.806 77.7995 64.846 77.8427C64.886 77.8858 64.9082 77.9422 64.9082 78.0007V82.1392H64.9081Z" fill="#160229"/>
<path d="M60.4631 62.3153H56.5617V63.4172C53.7166 65.1257 51.764 68.6439 51.764 72.7074C51.764 76.771 53.7166 80.2892 56.5617 81.9977V83.0996H60.4631C65.2675 83.0996 69.1622 78.4469 69.1622 72.7074C69.1622 66.968 65.2675 62.3153 60.4631 62.3153Z" fill="#0FDF8F"/>
<path d="M60.4631 83.3332H56.5617C56.4992 83.3332 56.4391 83.3086 56.3949 83.2648C56.3506 83.221 56.3258 83.1616 56.3258 83.0996V82.1282C53.363 80.2869 51.528 76.6912 51.528 72.7075C51.528 68.7237 53.3631 65.128 56.3258 63.2868V62.3154C56.3258 62.2535 56.3506 62.194 56.3949 62.1502C56.4391 62.1064 56.4992 62.0818 56.5617 62.0818H60.4631C65.3899 62.0818 69.3982 66.8485 69.3982 72.7075C69.3982 78.5664 65.3899 83.3332 60.4631 83.3332ZM56.7977 82.8659H60.4631C65.1297 82.8659 68.9263 78.3088 68.9263 72.7075C68.9263 67.1061 65.1297 62.5491 60.4631 62.5491H56.7977V63.4173C56.7977 63.499 56.7546 63.5748 56.6841 63.6171C53.7948 65.3521 51.9998 68.8354 51.9998 72.7076C51.9998 76.5798 53.7947 80.0631 56.6841 81.7981C56.7546 81.8404 56.7977 81.9163 56.7977 81.9979V82.8662V82.8659Z" fill="#160229"/>
<path d="M56.5618 83.0996C61.3661 83.0996 65.2609 78.4469 65.2609 72.7074C65.2609 66.968 61.3661 62.3153 56.5618 62.3153C51.7574 62.3153 47.8626 66.968 47.8626 72.7074C47.8626 78.4469 51.7574 83.0996 56.5618 83.0996Z" fill="white"/>
<path d="M56.5617 83.3332C51.6349 83.3332 47.6267 78.5665 47.6267 72.7075C47.6267 66.8484 51.6349 62.0818 56.5617 62.0818C61.4885 62.0818 65.4968 66.8485 65.4968 72.7075C65.4968 78.5664 61.4885 83.3332 56.5617 83.3332ZM56.5617 62.5491C51.8952 62.5491 48.0986 67.1061 48.0986 72.7075C48.0986 78.3088 51.8952 82.8659 56.5617 82.8659C61.2283 82.8659 65.0249 78.3088 65.0249 72.7075C65.0249 67.1061 61.2283 62.5491 56.5617 62.5491Z" fill="#160229"/>
<path d="M56.5617 80.3452C55.081 80.3452 53.657 79.6182 52.5519 78.2979C51.3216 76.8282 50.6441 74.8428 50.6441 72.7074C50.6441 70.5721 51.3216 68.5866 52.5519 67.1168C53.657 65.7967 55.081 65.0697 56.5617 65.0697C58.0424 65.0697 59.4666 65.7967 60.5716 67.1168C61.802 68.5866 62.4795 70.5721 62.4795 72.7074C62.4795 74.8428 61.802 76.8282 60.5716 78.2979C59.4665 79.6182 58.0424 80.3452 56.5617 80.3452Z" fill="white"/>
<path d="M56.5617 80.5788C55.0095 80.5788 53.521 79.8218 52.3703 78.4471C51.1049 76.9356 50.4081 74.8972 50.4081 72.7074C50.4081 70.5177 51.105 68.4794 52.3703 66.9678C53.5209 65.5931 55.0096 64.8361 56.5617 64.8361C58.1139 64.8361 59.6025 65.5931 60.7533 66.9678C62.0187 68.4793 62.7155 70.5178 62.7155 72.7074C62.7155 74.8971 62.0186 76.9356 60.7533 78.4471C59.6026 79.8218 58.114 80.5788 56.5617 80.5788ZM56.5617 65.3034C55.1526 65.3034 53.7929 66.0003 52.7335 67.266C51.5383 68.694 50.88 70.6265 50.88 72.7074C50.88 74.7883 51.5383 76.721 52.7335 78.1488C53.7929 79.4145 55.1526 80.1115 56.5617 80.1115C57.9709 80.1115 59.3306 79.4145 60.3901 78.1488C61.5854 76.721 62.2436 74.7885 62.2436 72.7074C62.2436 70.6264 61.5853 68.694 60.3901 67.266C59.3306 66.0005 57.9709 65.3034 56.5617 65.3034ZM69.1554 72.9411H65.2609C65.1983 72.9411 65.1383 72.9165 65.094 72.8727C65.0498 72.8288 65.0249 72.7694 65.0249 72.7074C65.0249 72.6455 65.0498 72.586 65.094 72.5422C65.1383 72.4984 65.1983 72.4738 65.2609 72.4738H69.1554C69.218 72.4738 69.278 72.4984 69.3222 72.5422C69.3665 72.586 69.3913 72.6455 69.3913 72.7074C69.3913 72.7694 69.3665 72.8288 69.3222 72.8727C69.278 72.9165 69.218 72.9411 69.1554 72.9411ZM67.4849 66.7663H63.6519C63.5894 66.7663 63.5294 66.7416 63.4851 66.6978C63.4409 66.654 63.416 66.5946 63.416 66.5326C63.416 66.4706 63.4409 66.4112 63.4851 66.3674C63.5294 66.3236 63.5894 66.299 63.6519 66.299H67.4849C67.5475 66.299 67.6075 66.3236 67.6517 66.3674C67.696 66.4112 67.7208 66.4706 67.7208 66.5326C67.7208 66.5946 67.696 66.654 67.6517 66.6978C67.6075 66.7416 67.5475 66.7663 67.4849 66.7663ZM67.3194 79.2312H63.5083C63.4457 79.2312 63.3857 79.2066 63.3414 79.1628C63.2972 79.119 63.2723 79.0596 63.2723 78.9976C63.2723 78.9356 63.2972 78.8762 63.3414 78.8324C63.3857 78.7885 63.4457 78.7639 63.5083 78.7639H67.3194C67.382 78.7639 67.442 78.7885 67.4862 78.8324C67.5305 78.8762 67.5553 78.9356 67.5553 78.9976C67.5553 79.0596 67.5305 79.119 67.4862 79.1628C67.442 79.2066 67.382 79.2312 67.3194 79.2312Z" fill="#160229"/>
</g>
<g clip-path="url(#clip4_0_823)">
<path d="M39.1543 59.1292C31.5583 60.7126 24.3512 63.753 17.9324 68.082L17.7206 66.2122L27.7972 69.4506C28.0389 69.5286 28.2523 69.6764 28.4104 69.8751C28.5685 70.0738 28.6642 70.3145 28.6853 70.5667C28.7064 70.8189 28.652 71.0712 28.529 71.2917C28.4061 71.5122 28.22 71.6908 27.9944 71.805L27.9607 71.8219C22.3806 74.6521 17.2524 78.2872 12.7401 82.6109C12.4144 82.921 11.9778 83.0885 11.5264 83.0766C11.075 83.0648 10.6456 82.8745 10.3329 82.5477C10.0202 82.2209 9.84964 81.7843 9.85881 81.3339C9.86797 80.8836 10.0561 80.4564 10.3818 80.1463C10.3979 80.1308 10.4203 80.1106 10.4368 80.0952C15.3539 75.7811 20.884 72.2149 26.8498 69.5111L27.016 71.883L17.0077 68.1808L16.9823 68.1712C16.7989 68.103 16.638 67.9847 16.5183 67.8299C16.3985 67.6751 16.3247 67.4901 16.3052 67.2959C16.2858 67.1018 16.3215 66.9065 16.4082 66.7323C16.495 66.5581 16.6294 66.4121 16.7959 66.3111C23.5718 62.158 31.0987 59.3607 38.9595 58.0741C39.0982 58.0524 39.2403 58.0859 39.3552 58.1673C39.4701 58.2487 39.5487 58.3716 39.5742 58.5096C39.5996 58.6477 39.5699 58.7898 39.4914 58.9057C39.4129 59.0215 39.2919 59.1017 39.1543 59.1292Z" fill="#160229"/>
<path d="M36.8683 61.5138C36.1544 60.0538 35.5609 58.5387 35.0937 56.9837C36.7339 57.4323 38.3764 57.8773 40.0213 58.3184C38.9158 59.3534 37.8649 60.4185 36.8683 61.5138Z" fill="#160229"/>
<path d="M40.1882 58.2725L40.1893 58.2765C40.197 58.3064 40.1965 58.3378 40.1879 58.3674C40.1793 58.3971 40.1629 58.4238 40.1404 58.4449C39.0506 59.4646 38.002 60.5273 36.997 61.6304C36.978 61.6514 36.9541 61.6673 36.9274 61.6769C36.9007 61.6864 36.8721 61.6893 36.8439 61.6852C36.8158 61.6811 36.7891 61.6701 36.7661 61.6533C36.7431 61.6365 36.7246 61.6144 36.7122 61.5889C35.995 60.12 35.3982 58.5961 34.9276 57.0323C34.9187 57.0028 34.9178 56.9714 34.9251 56.9415C34.9325 56.9116 34.9477 56.8842 34.9692 56.8623C34.9907 56.8403 35.0178 56.8245 35.0476 56.8164C35.0773 56.8084 35.1088 56.8085 35.1386 56.8167C36.7783 57.2653 38.4206 57.7101 40.0655 58.1513C40.0946 58.1592 40.1213 58.1745 40.1428 58.1957C40.1644 58.217 40.18 58.2434 40.1882 58.2725ZM36.9125 61.2079C37.8008 60.2417 38.7226 59.3067 39.6761 58.4046C38.2323 58.0171 36.791 57.6265 35.3522 57.2328C35.7765 58.5928 36.298 59.9212 36.9125 61.2079Z" fill="#160229"/>
</g>
<defs>
<clipPath id="clip0_0_823">
<rect width="76.3907" height="66.8036" fill="white" transform="translate(6.392 4.59857)"/>
</clipPath>
<clipPath id="clip1_0_823">
<rect width="47.2507" height="46.8557" fill="white" transform="translate(17.9853 17.1514)"/>
</clipPath>
<clipPath id="clip2_0_823">
<rect width="48.1907" height="38.715" fill="white" transform="translate(6.392 44.6186)"/>
</clipPath>
<clipPath id="clip3_0_823">
<rect width="40.4827" height="40.7657" fill="white" transform="translate(47.6267 42.5679)"/>
</clipPath>
<clipPath id="clip4_0_823">
<rect width="19.1414" height="35.53" fill="white" transform="matrix(-0.271772 -0.962366 0.964062 -0.265693 10.3845 83.4684)"/>
</clipPath>
</defs>
</svg>
