<svg width="16" height="16" viewBox="0 0 16 16" fill="none" xmlns="http://www.w3.org/2000/svg">
<path d="M7.5 1.5V4H8.5V1.5H7.5ZM3.75 3.04688L3.04688 3.75L4.8125 5.53125L5.53125 4.8125L3.75 3.04688ZM12.25 3.04688L10.4688 4.8125L11.1875 5.53125L12.9531 3.75L12.25 3.04688ZM8 4.5C6.07227 4.5 4.5 6.07227 4.5 8C4.5 9.92773 6.07227 11.5 8 11.5C9.92773 11.5 11.5 9.92773 11.5 8C11.5 6.07227 9.92773 4.5 8 4.5ZM8 5.5C9.38672 5.5 10.5 6.61328 10.5 8C10.5 9.38672 9.38672 10.5 8 10.5C6.61328 10.5 5.5 9.38672 5.5 8C5.5 6.61328 6.61328 5.5 8 5.5ZM1.5 7.5V8.5H4V7.5H1.5ZM12 7.5V8.5H14.5V7.5H12ZM4.8125 10.4688L3.04688 12.25L3.75 12.9531L5.53125 11.1875L4.8125 10.4688ZM11.1875 10.4688L10.4688 11.1875L12.25 12.9531L12.9531 12.25L11.1875 10.4688ZM7.5 12V14.5H8.5V12H7.5Z" fill="#F0A719"/>
</svg>
