<svg width="15" height="14" viewBox="0 0 15 14" fill="none" xmlns="http://www.w3.org/2000/svg">
<g clip-path="url(#clip0_0_755)">
<path d="M7.49984 12.8337C4.27809 12.8337 1.6665 10.2221 1.6665 7.00033C1.6665 3.77858 4.27809 1.16699 7.49984 1.16699C10.7216 1.16699 13.3332 3.77858 13.3332 7.00033C13.3332 10.2221 10.7216 12.8337 7.49984 12.8337ZM7.49984 11.667C8.73751 11.667 9.9245 11.1753 10.7997 10.3002C11.6748 9.42499 12.1665 8.238 12.1665 7.00033C12.1665 5.76265 11.6748 4.57566 10.7997 3.70049C9.9245 2.82532 8.73751 2.33366 7.49984 2.33366C6.26216 2.33366 5.07518 2.82532 4.20001 3.70049C3.32484 4.57566 2.83317 5.76265 2.83317 7.00033C2.83317 8.238 3.32484 9.42499 4.20001 10.3002C5.07518 11.1753 6.26216 11.667 7.49984 11.667ZM6.9165 4.08366H8.08317V5.25033H6.9165V4.08366ZM6.9165 6.41699H8.08317V9.91699H6.9165V6.41699Z" fill="#A0A0A0"/>
</g>
<defs>
<clipPath id="clip0_0_755">
<rect width="14" height="14" fill="white" transform="translate(0.5)"/>
</clipPath>
</defs>
</svg>
